<svg data-v-423bf9ae="" xmlns="http://www.w3.org/2000/svg" viewBox="0 0 277 90" class="iconLeft"><!----><!----><!----><g data-v-423bf9ae="" id="2d2b000a-7ee6-4b5d-b1f4-e8ca3708bf21" fill="black" transform="matrix(4.761904617736313,0,0,4.761904617736313,92.78066873385987,-2.857141362836856)"><path d="M0.28 3.75L2.03 3.75L4.24 10.77L6.48 3.75L8.22 3.75L5.10 12.84L3.36 12.84L0.28 3.75ZM11.47 8.86L11.47 8.86L11.47 8.86Q12.28 8.86 13.34 9.13L13.34 9.13L13.34 8.46L13.34 8.46Q13.34 7.74 13.05 7.40L13.05 7.40L13.05 7.40Q12.77 7.06 12.12 7.06L12.12 7.06L12.12 7.06Q11.47 7.06 11.12 7.32L11.12 7.32L11.12 7.32Q10.77 7.57 10.77 8.05L10.77 8.05L8.96 8.05L8.96 8.05Q8.96 6.89 9.78 6.37L9.78 6.37L9.78 6.37Q10.60 5.85 12.07 5.85L12.07 5.85L12.07 5.85Q14.17 5.85 14.78 7.32L14.78 7.32L14.78 7.32Q14.99 7.83 14.99 8.51L14.99 8.51L14.99 12.84L13.55 12.84L13.43 11.93L13.43 11.93Q12.77 13.03 11.41 13.03L11.41 13.03L11.41 13.03Q10.09 13.03 9.37 12.39L9.37 12.39L9.37 12.39Q8.69 11.77 8.69 10.83L8.69 10.83L8.69 10.83Q8.69 9.88 9.44 9.37L9.44 9.37L9.44 9.37Q10.18 8.86 11.47 8.86ZM13.34 10.18L13.34 10.18L13.34 10.18Q12.52 9.95 11.80 9.95L11.80 9.95L11.80 9.95Q10.46 9.95 10.46 10.85L10.46 10.85L10.46 10.85Q10.46 11.23 10.77 11.50L10.77 11.50L10.77 11.50Q11.07 11.77 11.75 11.77L11.75 11.77L11.75 11.77Q12.43 11.77 12.87 11.32L12.87 11.32L12.87 11.32Q13.31 10.86 13.34 10.18ZM19.99 5.85L19.99 5.85L19.99 5.85Q20.64 5.85 21.15 6.07L21.15 6.07L21.15 6.07Q21.66 6.29 22.01 6.64L22.01 6.64L22.01 6.64Q22.71 7.31 22.83 8.33L22.83 8.33L21.17 8.37L21.17 8.37Q21.06 7.92 20.76 7.63L20.76 7.63L20.76 7.63Q20.45 7.34 20.06 7.34L20.06 7.34L20.06 7.34Q19.67 7.34 19.39 7.46L19.39 7.46L19.39 7.46Q19.11 7.57 18.90 7.83L18.90 7.83L18.90 7.83Q18.42 8.41 18.42 9.45L18.42 9.45L18.42 9.45Q18.42 10.49 18.87 11.01L18.87 11.01L18.87 11.01Q19.32 11.54 19.96 11.54L19.96 11.54L19.96 11.54Q20.59 11.54 20.88 11.24L20.88 11.24L20.88 11.24Q21.17 10.93 21.17 10.42L21.17 10.42L22.83 10.42L22.83 10.42Q22.83 11.54 22.09 12.28L22.09 12.28L22.09 12.28Q21.34 13.03 19.98 13.03L19.98 13.03L19.98 13.03Q18.63 13.03 17.72 12.05L17.72 12.05L17.72 12.05Q16.76 11.00 16.76 9.44L16.76 9.44L16.76 9.44Q16.76 7.78 17.72 6.79L17.72 6.79L17.72 6.79Q18.63 5.85 19.99 5.85ZM27.06 8.86L27.06 8.86L27.06 8.86Q27.87 8.86 28.94 9.13L28.94 9.13L28.94 8.46L28.94 8.46Q28.94 7.74 28.65 7.40L28.65 7.40L28.65 7.40Q28.36 7.06 27.71 7.06L27.71 7.06L27.71 7.06Q27.06 7.06 26.71 7.32L26.71 7.32L26.71 7.32Q26.36 7.57 26.36 8.05L26.36 8.05L24.56 8.05L24.56 8.05Q24.56 6.89 25.38 6.37L25.38 6.37L25.38 6.37Q26.19 5.85 27.66 5.85L27.66 5.85L27.66 5.85Q29.76 5.85 30.38 7.32L30.38 7.32L30.38 7.32Q30.59 7.83 30.59 8.51L30.59 8.51L30.59 12.84L29.15 12.84L29.02 11.93L29.02 11.93Q28.36 13.03 27.01 13.03L27.01 13.03L27.01 13.03Q25.69 13.03 24.96 12.39L24.96 12.39L24.96 12.39Q24.29 11.77 24.29 10.83L24.29 10.83L24.29 10.83Q24.29 9.88 25.03 9.37L25.03 9.37L25.03 9.37Q25.77 8.86 27.06 8.86ZM28.94 10.18L28.94 10.18L28.94 10.18Q28.11 9.95 27.40 9.95L27.40 9.95L27.40 9.95Q26.05 9.95 26.05 10.85L26.05 10.85L26.05 10.85Q26.05 11.23 26.36 11.50L26.36 11.50L26.36 11.50Q26.67 11.77 27.35 11.77L27.35 11.77L27.35 11.77Q28.03 11.77 28.47 11.32L28.47 11.32L28.47 11.32Q28.91 10.86 28.94 10.18ZM31.96 6.03L33.84 6.03L35.48 10.93L36.90 6.03L38.58 6.03L35.98 14.07L35.98 14.07Q35.57 15.29 34.99 15.82L34.99 15.82L34.99 15.82Q34.41 16.35 33.52 16.35L33.52 16.35L33.52 16.35Q32.61 16.35 31.70 15.90L31.70 15.90L31.70 14.45L31.70 14.45Q32.42 14.91 33.17 14.91L33.17 14.91L33.17 14.91Q33.66 14.91 33.97 14.52L33.97 14.52L33.97 14.52Q34.29 14.13 34.48 13.50L34.48 13.50L34.69 12.84L31.96 6.03Z"></path></g><!----><g data-v-423bf9ae="" id="386f3f13-075c-44b0-81d0-105a954318c7" transform="matrix(1,0,0,1,-12.057003021240234,-5)" stroke="none" fill="black"><path d="M50 5C29.534 5 12.943 21.58 12.943 42.034 12.943 62.487 49.99 95 49.99 95s37.067-32.513 37.067-52.966C87.057 21.58 70.466 5 50 5zm-.009 11.547c14.07 0 25.487 11.417 25.487 25.487 0 14.07-11.417 25.487-25.487 25.487-14.07 0-25.487-11.417-25.487-25.487 0-14.07 11.417-25.487 25.487-25.487zm0 1.042c-7.793 0-14.73 3.64-19.206 9.315a4.405 5.28 67.958 0 1 3.016.507 4.405 5.28 67.958 0 1 2.102 2.8 5.28 4.405 48.2 0 1 2.903-1.315 5.28 4.405 48.2 0 1 1.35.17 4.625 5.89 24.098 0 1 4.706-2.838l-2.855-3.869a5.16 5.28 88.865 0 1 1.043-.148 5.16 5.28 88.865 0 1 4.51 2.134 5.16 5.28 88.865 0 1 .905 3.963 6.123 4.45 79.49 0 1 3.185-.162 6.123 4.45 79.49 0 1 3.495 5.431l-4.081-1.817a4.475 6.087 13.325 0 1-.882 6.53l-2.207-5.769a1.155 1.504 0 0 1-1.08.977 1.155 1.504 0 0 1-1.11-1.088c-1.382 1.233-2.68 3.046-3.762 5.25 2.825.323 5.374.894 7.483 1.648 3.479-1.878 8.595-3.066 14.3-3.066 3.773 0 7.286.52 10.24 1.415-2.061-11.416-12.042-20.068-24.055-20.068zm5.742 5.642a2.35 1.608 3.667 0 1 1.697.633 1.608 2.35 86.333 0 1 .911-.189l-.682.423a2.35 1.608 3.667 0 1 .271.494 1.608 2.35 86.333 0 1 2.197-1.36l-2.197 1.36-.534-.33-1.252.774-2.197-1.36a2.35 1.608 3.667 0 1 2.197 1.36 1.608 2.35 86.333 0 1 .895-.996l-1.306-.809zM29.51 28.68a24.297 24.297 0 0 0-3.737 10.012c1.788-.486 3.8-.858 5.968-1.082.25-1.197.586-2.316.996-3.335a1.412 1.27 68.092 0 1-1.396-.91 1.412 1.27 68.092 0 1-.01-.034l-2.99.96a4.405 5.28 22.903 0 1 3.557-4.38l-2.388-1.23zm11.862.878a5.28 4.405 48.2 0 1 2.314 2.191c.108-.139.216-.276.325-.41a1.27 1.654 0 0 1-.953-1.598 1.27 1.654 0 0 1 .002-.041l-1.688-.142zm5.784.822l-.01.15a1.155 1.504 0 0 1 .077.026l-.067-.176zm-3.585 1.519l-4.158.08a4.405 5.28 3.26 0 1 1.445 4.444c.816-1.71 1.734-3.236 2.713-4.524zm-8.224.443l.039.122a1.283 1.155 68.092 0 1 .08-.01l-.119-.114zm1.443 1.39a1.283 1.155 68.092 0 1-.691 1.178 1.283 1.155 68.092 0 1-1.376-.448c-.518.869-.947 1.884-1.275 3.004a48.398 48.398 0 0 1 6.919.037c.032-.076.066-.15.1-.226l-3.677-3.544zm-11.238 7.725a24.35 24.35 0 0 0 5.879 16.491c.825-.243 2.893-.845 4.1-1.105l.142-.03c-2.909-3.134-4.744-9.123-4.421-15.355h-5.7zm7.203 0c-.426 6.128 1.78 12.179 5.16 14.104-.82-3.885-.485-9.048 1.018-14.104h-6.178zm7.756 0c-1.744 5.523-1.773 11.376.001 14.678a57.08 57.08 0 0 1 1.849-.099 47.873 47.873 0 0 1 2.513-.024c.852.011 1.703.035 2.552.093.936.065 1.87.16 2.8.285.742.1 1.481.218 2.214.37 1.003.206 1.995.47 2.984.737a26.132 26.132 0 0 1 2.901.956c.252.097.5.204.748.31.298.127.595.256.889.391.296.136.592.274.883.42.23.116.458.237.683.363.274.153.545.313.813.477.266.163.531.327.788.503.301.207.882.65.882.65l.32.269c6.124-4.441 10.106-11.654 10.106-19.802 0-.193-.003-.385-.007-.578H40.511zm9.11.979l-.128 5.01h4.267l-.943 2.037-5.526.022-1.252-2.06h2.539a3.454 2.882 42.168 0 1-1.044-2.545 3.454 2.882 42.168 0 1 2.088-2.465zm13.93 5.743l-.13 5.01h4.267l-.942 2.037-5.527.023-1.251-2.06h2.538a3.454 2.882 42.168 0 1-1.044-2.545 3.454 2.882 42.168 0 1 2.088-2.465z"></path></g><!----></svg>